# Blender v2.78 (sub 0) OBJ File: 'cube_fire.blend'
# www.blender.org
mtllib floor.mtl
o floor_tile_Cube.003
v -0.500000 0.033852 -0.950000
v -0.500000 0.033852 0.950000
v 0.500000 0.033852 -0.950000
v 0.500000 0.033852 0.950000
v 0.950000 0.033852 0.500000
v -0.950000 0.033852 0.500000
v -0.500000 0.033852 0.500000
v 0.500000 0.033852 0.500000
v 0.950000 0.033852 -0.500000
v -0.950000 0.033852 -0.500000
v -0.500000 0.033852 -0.500000
v 0.500000 0.033852 -0.500000
v -0.600000 0.033852 -0.950000
v -0.600000 0.033852 0.950000
v -0.600000 0.033852 0.500000
v -0.600000 0.033852 -0.500000
v 0.600000 0.033852 -0.950000
v 0.600000 0.033852 0.950000
v 0.600000 0.033852 0.500000
v 0.600000 0.033852 -0.500000
v 0.950000 0.033852 -0.600000
v -0.950000 0.033852 -0.600000
v -0.500000 0.033852 -0.600000
v 0.500000 0.033852 -0.600000
v -0.600000 0.033852 -0.600000
v 0.600000 0.033852 -0.600000
v 0.950000 0.033852 0.600000
v -0.950000 0.033852 0.600000
v -0.500000 0.033852 0.600000
v 0.500000 0.033852 0.600000
v -0.600000 0.033852 0.600000
v 0.600000 0.033852 0.600000
v -0.500000 -0.163940 -0.950000
v 0.500000 -0.163940 -0.950000
v -0.500000 -0.163940 0.950000
v 0.500000 -0.163940 0.950000
v 0.950000 -0.163940 0.500000
v -0.950000 -0.163940 0.500000
v 0.950000 -0.163940 -0.500000
v -0.950000 -0.163940 -0.500000
v -0.600000 -0.163940 -0.950000
v -0.600000 -0.163940 0.950000
v 0.600000 -0.163940 -0.950000
v 0.600000 -0.163940 0.950000
v 0.950000 -0.163940 -0.600000
v -0.950000 -0.163940 -0.600000
v -0.950000 -0.163940 0.600000
v 0.950000 -0.163940 0.600000
v 1.000000 0.133852 -1.000000
v 1.000000 0.133852 1.000000
v -1.000000 0.133852 1.000000
v -1.000000 0.133852 -1.000000
v 1.000000 -0.163940 -1.000000
v 1.000000 -0.163940 1.000000
v -1.000000 -0.163940 1.000000
v -1.000000 -0.163940 -1.000000
v 1.000000 0.133852 0.600000
v 1.000000 0.133852 -0.600000
v -0.600000 0.133852 -1.000000
v 0.600000 0.133852 -1.000000
v -0.600000 0.133852 1.000000
v 0.600000 0.133852 1.000000
v -1.000000 0.133852 -0.600000
v -1.000000 0.133852 0.600000
v 0.500000 0.133852 -1.000000
v -0.500000 0.133852 -1.000000
v 0.500000 0.133852 1.000000
v -0.500000 0.133852 1.000000
v -0.500000 0.133852 0.600000
v -0.500000 -0.163940 -1.000000
v 0.500000 -0.163940 -1.000000
v 0.500000 0.133852 0.600000
v 1.000000 0.133852 -0.500000
v 1.000000 0.133852 0.500000
v -1.000000 0.133852 -0.500000
v -1.000000 0.133852 0.500000
v 0.600000 0.133852 0.500000
v 0.600000 0.133852 -0.500000
v -0.600000 0.133852 0.500000
v -0.600000 0.133852 -0.500000
v -0.600000 -0.163940 -1.000000
v -0.600000 0.133852 0.600000
v 0.600000 -0.163940 -1.000000
v 0.600000 0.133852 0.600000
v -0.500000 0.133852 -0.600000
v 0.500000 0.133852 -0.600000
v -0.600000 0.133852 -0.600000
v 0.600000 0.133852 -0.600000
v -0.500000 -0.163940 1.000000
v 0.500000 -0.163940 1.000000
v 1.000000 -0.163940 0.500000
v -1.000000 -0.163940 0.500000
v 1.000000 -0.163940 -0.500000
v -1.000000 -0.163940 -0.500000
v -0.600000 -0.163940 1.000000
v 0.600000 -0.163940 1.000000
v 1.000000 -0.163940 -0.600000
v -1.000000 -0.163940 -0.600000
v -1.000000 -0.163940 0.600000
v 1.000000 -0.163940 0.600000
v -0.500000 0.133852 -0.500000
v -0.500000 0.133852 0.500000
v 0.500000 0.133852 -0.500000
v 0.500000 0.133852 0.500000
vt 0.3819 0.6181
vt 0.7875 0.6181
vt 0.7875 0.6597
vt 0.3819 0.6597
vt 0.9694 0.6181
vt 0.8278 0.6181
vt 0.8278 0.6597
vt 0.9889 0.6597
vt 0.9694 0.6181
vt 0.9694 0.5389
vt 0.9889 0.5389
vt 0.9889 0.6597
vt 0.9694 0.5389
vt 0.9889 0.5389
vt 0.2000 0.6181
vt 0.2000 0.5389
vt 0.1806 0.5389
vt 0.1806 0.6597
vt 0.2000 0.5389
vt 0.2000 0.6181
vt 0.1806 0.6597
vt 0.1806 0.5389
vt 0.3431 0.6181
vt 0.2000 0.6181
vt 0.1806 0.6597
vt 0.3431 0.6597
vt 0.9694 0.6181
vt 0.9694 0.5389
vt 0.9889 0.5389
vt 0.9889 0.6597
vt 0.3431 0.6181
vt 0.2000 0.6181
vt 0.1806 0.6597
vt 0.3431 0.6597
vt 0.2000 0.6181
vt 0.3431 0.6181
vt 0.3431 0.6597
vt 0.1806 0.6597
vt 0.2000 0.5389
vt 0.1806 0.5389
vt 0.2000 0.5389
vt 0.2000 0.6181
vt 0.1806 0.6597
vt 0.1806 0.5389
vt 0.2000 0.5389
vt 0.1806 0.5389
vt 0.8278 0.6181
vt 0.9694 0.6181
vt 0.9889 0.6597
vt 0.8278 0.6597
vt 0.9694 0.5389
vt 0.9694 0.6181
vt 0.9889 0.6597
vt 0.9889 0.5389
vt 0.2000 0.5389
vt 0.1806 0.5389
vt 0.7875 0.6181
vt 0.3819 0.6181
vt 0.3819 0.6597
vt 0.7875 0.6597
vt 0.9694 0.5389
vt 0.9889 0.5389
vt 0.2000 0.5389
vt 0.2000 0.6181
vt 0.1806 0.6597
vt 0.1806 0.5389
vt 0.2000 0.6181
vt 0.2000 0.5389
vt 0.1806 0.5389
vt 0.1806 0.6597
vt 0.9694 0.5389
vt 0.9694 0.6181
vt 0.9889 0.6597
vt 0.9889 0.5389
vt 0.3431 0.6181
vt 0.3431 0.6597
vt 0.3431 0.5389
vt 0.3431 0.6597
vt 0.1806 0.6597
vt 0.1806 0.5389
vt 0.8278 0.5389
vt 0.8278 0.6597
vt 0.9889 0.6597
vt 0.9889 0.5389
vt 0.3431 0.3625
vt 0.1806 0.3625
vt 0.1806 0.2014
vt 0.3431 0.2014
vt 0.3431 0.5389
vt 0.3431 0.6597
vt 0.1806 0.6597
vt 0.1806 0.5389
vt 0.7875 0.3625
vt 0.3819 0.3625
vt 0.3819 0.2014
vt 0.7875 0.2014
vt 0.7875 0.5389
vt 0.7875 0.6597
vt 0.3819 0.6597
vt 0.3819 0.5389
vt 0.7875 0.5389
vt 0.7875 0.6597
vt 0.3819 0.6597
vt 0.3819 0.5389
vt 0.3431 0.8069
vt 0.1806 0.8069
vt 0.1806 0.4028
vt 0.3431 0.4028
vt 0.3819 0.5389
vt 0.3819 0.6597
vt 0.7875 0.6597
vt 0.7875 0.5389
vt 0.1806 0.8069
vt 0.0194 0.8069
vt 0.0194 0.4028
vt 0.1806 0.4028
vt 0.1806 0.3625
vt 0.0194 0.3625
vt 0.0194 0.2014
vt 0.1806 0.2014
vt 0.0194 0.6597
vt 0.0194 0.5389
vt 0.1806 0.2014
vt 0.0194 0.2014
vt 0.0194 0.0375
vt 0.1806 0.0375
vt 0.7875 0.2014
vt 0.3819 0.2014
vt 0.3819 0.0375
vt 0.7875 0.0375
vt 0.1806 0.5389
vt 0.1806 0.6597
vt 0.0194 0.6597
vt 0.0194 0.5389
vt 0.3431 0.2014
vt 0.1806 0.2014
vt 0.1806 0.0375
vt 0.3431 0.0375
vt 0.3431 0.6597
vt 0.3431 0.5389
vt 0.0194 0.5389
vt 0.0194 0.6597
vt 0.7875 0.6597
vt 0.7875 0.5389
vt 0.3819 0.5389
vt 0.3819 0.6597
vt 0.3431 0.6597
vt 0.3431 0.5389
vt 0.1806 0.5389
vt 0.1806 0.6597
vt 0.9694 0.6181
vt 0.8278 0.6181
vt 0.8278 0.6597
vt 0.9889 0.6597
vt 0.3431 0.6181
vt 0.3431 0.6597
vt 0.8278 0.6181
vt 0.9694 0.6181
vt 0.9889 0.6597
vt 0.8278 0.6597
vt 0.9694 0.5389
vt 0.9889 0.5389
vt 0.3431 0.6181
vt 0.3431 0.6597
vt 0.8278 0.6181
vt 0.8278 0.6597
vt 0.8278 0.6181
vt 0.8278 0.6597
vt 0.8278 0.6181
vt 0.8278 0.6597
vt 0.7875 0.6181
vt 0.3819 0.6181
vt 0.3819 0.6597
vt 0.7875 0.6597
vt 0.9694 0.5389
vt 0.9889 0.5389
vt 0.3431 0.6181
vt 0.3431 0.6597
vt 0.3819 0.6181
vt 0.7875 0.6181
vt 0.7875 0.6597
vt 0.3819 0.6597
vt 0.7875 0.6181
vt 0.3819 0.6181
vt 0.3819 0.6597
vt 0.7875 0.6597
vt 0.3819 0.6181
vt 0.7875 0.6181
vt 0.7875 0.6597
vt 0.3819 0.6597
vt 0.3819 0.6181
vt 0.3819 0.6597
vt 0.7875 0.6181
vt 0.7875 0.6597
vt 0.7875 0.4028
vt 0.7875 0.8069
vt 0.3819 0.8069
vt 0.3819 0.4028
vt 0.4653 0.9819
vt 0.3861 0.9819
vt 0.3861 0.9417
vt 0.4653 0.9417
vt 0.6417 0.9819
vt 0.6417 0.9417
vt 0.7833 0.9417
vt 0.7833 0.9819
vt 0.1972 0.9819
vt 0.1972 0.9417
vt 0.6014 0.9417
vt 0.6014 0.9819
vt 0.4653 0.9417
vt 0.3861 0.9417
vt 0.3861 0.9806
vt 0.4653 0.9806
vt 0.6389 0.9403
vt 0.7819 0.9403
vt 0.7819 0.9806
vt 0.6389 0.9806
vt 0.4653 0.9819
vt 0.3861 0.9819
vt 0.3861 0.9417
vt 0.4653 0.9417
vt 0.1944 0.9403
vt 0.6000 0.9403
vt 0.6000 0.9806
vt 0.1944 0.9806
vt 0.1542 0.9403
vt 0.1542 0.9806
vt 0.1972 0.9806
vt 0.1972 0.9417
vt 0.6014 0.9417
vt 0.6014 0.9806
vt 0.6417 0.9806
vt 0.6417 0.9417
vt 0.7833 0.9417
vt 0.7833 0.9806
vt 0.4653 0.9806
vt 0.3861 0.9806
vt 0.3861 0.9417
vt 0.4653 0.9417
vt 0.0125 0.9403
vt 0.0125 0.9806
vt 0.0139 0.9806
vt 0.0139 0.9417
vt 0.1569 0.9417
vt 0.1569 0.9806
vt 0.0139 0.9819
vt 0.0139 0.9417
vt 0.1569 0.9417
vt 0.1569 0.9819
vt 0.4653 0.9417
vt 0.3861 0.9417
vt 0.3861 0.9819
vt 0.4653 0.9819
vt 0.0194 0.9403
vt 0.1611 0.9403
vt 0.1611 0.9792
vt 0.0194 0.9792
vt 0.6069 0.9403
vt 0.6458 0.9403
vt 0.6458 0.9792
vt 0.6069 0.9792
vt 0.2028 0.9403
vt 0.2028 0.9792
vt 0.4653 0.9806
vt 0.3861 0.9806
vt 0.3861 0.9417
vt 0.4653 0.9417
vt 0.7903 0.9403
vt 0.7903 0.9792
vt 0.3861 0.9806
vt 0.4653 0.9806
vt 0.4653 0.9417
vt 0.3861 0.9417
vt 0.3861 0.9819
vt 0.4653 0.9819
vt 0.4653 0.9417
vt 0.3861 0.9417
vn 1.0000 0.0000 0.0000
vn 0.0000 0.0000 -1.0000
vn -0.0000 0.0000 1.0000
vn -1.0000 -0.0000 -0.0000
vn 0.0000 1.0000 0.0000
usemtl _base_floor
s off
f 15/1/1 16/2/1 80/3/1 79/4/1
f 27/5/2 32/6/2 84/7/2 57/8/2
f 13/9/1 41/10/1 81/11/1 59/12/1
f 48/13/2 27/5/2 57/8/2 100/14/2
f 28/15/2 47/16/2 99/17/2 64/18/2
f 46/19/3 22/20/3 63/21/3 98/22/3
f 16/23/2 10/24/2 75/25/2 80/26/2
f 21/27/3 45/28/3 97/29/3 58/30/3
f 32/31/4 18/32/4 62/33/4 84/34/4
f 6/35/3 15/36/3 79/37/3 76/38/3
f 18/32/4 44/39/4 96/40/4 62/33/4
f 42/41/1 14/42/1 61/43/1 95/44/1
f 10/24/2 40/45/2 94/46/2 75/25/2
f 19/47/3 5/48/3 74/49/3 77/50/3
f 39/51/2 9/52/2 73/53/2 93/54/2
f 38/55/3 6/35/3 76/38/3 92/56/3
f 20/57/4 19/58/4 77/59/4 78/60/4
f 5/48/3 37/61/3 91/62/3 74/49/3
f 36/63/1 4/64/1 67/65/1 90/66/1
f 2/67/4 35/68/4 89/69/4 68/70/4
f 43/71/4 17/72/4 60/73/4 83/74/4
f 22/20/3 25/75/3 87/76/3 63/21/3
f 95/77/3 61/78/3 51/79/3 55/80/3
f 98/81/4 63/82/4 52/83/4 56/84/4
f 82/85/5 64/86/5 51/87/5 61/88/5
f 100/89/1 57/90/1 50/91/1 54/92/1
f 72/93/5 69/94/5 68/95/5 67/96/5
f 90/97/3 67/98/3 68/99/3 89/100/3
f 93/101/1 73/102/1 74/103/1 91/104/1
f 80/105/5 75/106/5 76/107/5 79/108/5
f 92/109/4 76/110/4 75/111/4 94/112/4
f 73/113/5 78/114/5 77/115/5 74/116/5
f 57/117/5 84/118/5 62/119/5 50/120/5
f 54/92/3 50/91/3 62/121/3 96/122/3
f 49/123/5 60/124/5 88/125/5 58/126/5
f 65/127/5 66/128/5 85/129/5 86/130/5
f 53/131/1 49/132/1 58/133/1 97/134/1
f 59/135/5 52/136/5 63/137/5 87/138/5
f 55/80/4 51/79/4 64/139/4 99/140/4
f 49/132/2 53/131/2 83/141/2 60/142/2
f 65/143/2 71/144/2 70/145/2 66/146/2
f 59/147/2 81/148/2 56/149/2 52/150/2
f 1/151/4 23/152/4 85/153/4 66/154/4
f 29/155/4 2/67/4 68/70/4 69/156/4
f 24/157/1 3/158/1 65/159/1 86/160/1
f 33/161/4 1/151/4 66/154/4 70/162/4
f 14/42/1 31/163/1 82/164/1 61/43/1
f 25/165/1 13/9/1 59/12/1 87/166/1
f 17/72/4 26/167/4 88/168/4 60/73/4
f 26/167/3 21/27/3 58/30/3 88/168/3
f 9/52/2 20/169/2 78/170/2 73/53/2
f 30/171/2 29/172/2 69/173/2 72/174/2
f 3/158/1 34/175/1 71/176/1 65/159/1
f 4/64/1 30/177/1 72/178/1 67/65/1
f 31/163/2 28/15/2 64/18/2 82/164/2
f 23/179/3 24/180/3 86/181/3 85/182/3
f 11/183/4 7/184/4 102/185/4 101/186/4
f 8/187/1 12/188/1 103/189/1 104/190/1
f 12/188/2 11/191/2 101/192/2 103/189/2
f 7/184/3 8/193/3 104/194/3 102/185/3
f 104/195/5 103/196/5 101/197/5 102/198/5
usemtl _glow_floor
f 44/199/3 18/200/3 4/201/3 36/202/3
f 32/203/5 30/204/5 4/205/5 18/206/5
f 20/207/5 12/208/5 8/209/5 19/210/5
f 47/211/4 28/212/4 6/213/4 38/214/4
f 25/215/5 22/216/5 10/217/5 16/218/5
f 45/219/1 21/220/1 9/221/1 39/222/1
f 24/223/5 23/224/5 11/225/5 12/226/5
f 26/227/5 24/223/5 12/226/5 20/228/5
f 23/224/5 25/215/5 16/218/5 11/225/5
f 11/229/5 16/230/5 15/231/5 7/232/5
f 29/233/5 31/234/5 14/235/5 2/236/5
f 35/237/3 2/238/3 14/239/3 42/240/3
f 21/241/5 26/227/5 20/228/5 9/242/5
f 1/243/5 13/244/5 25/245/5 23/246/5
f 17/247/5 3/248/5 24/249/5 26/250/5
f 40/251/4 10/252/4 22/253/4 46/254/4
f 5/255/5 19/256/5 32/257/5 27/258/5
f 7/259/5 15/260/5 31/261/5 29/262/5
f 19/256/5 8/263/5 30/264/5 32/257/5
f 8/263/5 7/259/5 29/262/5 30/264/5
f 37/265/1 5/266/1 27/267/1 48/268/1
f 15/260/5 6/269/5 28/270/5 31/261/5
f 1/271/2 33/272/2 41/273/2 13/274/2
f 17/275/2 43/276/2 34/277/2 3/278/2
